<svg id="Layer_1" data-name="Layer 1" xmlns="http://www.w3.org/2000/svg" viewBox="0 0 1920 1080"><defs><style>.cls-1{fill:#fefefe;}.cls-2{fill:#18171b;}.cls-3{fill:#04772a;}.cls-4{fill:#f4f5f4;}.cls-5{fill:#e5e5e5;}.cls-6{fill:#fce1c2;}.cls-7{fill:#d28508;}.cls-8{fill:#d2860a;}.cls-9{fill:#040306;}.cls-10{fill:#0f0f12;}.cls-11{fill:#25a245;}.cls-12{fill:#f8f9f8;}.cls-13{fill:#d08103;}.cls-14{fill:#23466a;}</style></defs><path class="cls-1" d="M959.49,1027.18l.07-16.88a156.09,156.09,0,0,1,18.13,16.54l-.12.12Z"/><path class="cls-2" d="M1044.46,998.56l-31.5,20a107.37,107.37,0,0,0-15.5,8.49l.09-.06-1.9,1.26-.45.1c-6.2,3.58-12.18,4.66-17.51-1.55a156.09,156.09,0,0,0-18.13-16.54,4.76,4.76,0,0,0-3.36-2.68c-.09-.18-.12-.41-.26-.54-7.47-6.68-7.54-6.77-15.27-.78-6.21,4.81-12.24,9.87-18.35,14.81-2.68,1.08-4.77,3-6.91,4.84-3.18.72-5.31,5.5-9.46,2.44l-2.09-1.33c-5.11-3.76-8.34-10.3-15.73-10.72-.52-3.8-4-5-6.34-7.18L870.24,998.6l-7.64-7.22-10.16-9.6c-1.66-2.94-5.13-4.51-6-8l0-1.29a1.68,1.68,0,0,1,2.3-.28,3.14,3.14,0,0,0,3,1.41H884a3.14,3.14,0,0,0,3-1.41l2.3-.13,1.14.18h8.41l1.83.07,1.71.26a3.08,3.08,0,0,0,4.75,0l1.88-.32,58.88,1.15,21.31,0c13.06,1.72,26.19,1.33,39.31,1.19,2.36.52,4.71,1.53,7.09.11l1.3.28,2.06.29c7.17,1.64,14.53-.19,21.72,1.16,1.18,2.83,2.88,2.34,4.75.72l4.76.15c0,1.21,0,2.42.07,3.62l-1.09,1.06c-1.82-.06-3.7-.22-3.64,2.48l.07-.07-1.33,1.13h0c-.39.3-.78.6-1.18.89q-2.4,1.92-4.82,3.82l-1,.07c-2.55-.33-4,.54-3.74,3.36a4,4,0,0,0-3.72,2.54l-3.08.09a3.34,3.34,0,0,0-.39,1Zm12.65-16.08c-66.62-2-133-4.68-199.81-4,15.26,15.19,31.37,28.16,47.52,41.09,2.63,2.11,4.33,2.59,7.32.37,10.73-8,21.84-15.45,32.61-23.37,3-2.21,5.09-1.74,7.67.33,6.31,5.06,12.66,10.09,19.13,14.93,5.35,4,10,11.53,15.93,11.43,6.07-.09,12.15-5.76,18-9.31C1022.77,1003.52,1039.92,993,1057.11,982.48Zm-115.33-8.43v.45H951v-.45Z"/><path class="cls-3" d="M852.41,158.53,870.18,156c6.21-1.45,12.69,0,18.86-1.81l2.66.33c.71.5.93-.08,1.2-.54l11.85,0c.25.4.41,1,1.08.48l3.66,0c4.14,1.59,8.56.74,12.83,1.26,10.52,1.29,20.76,3.94,31.23,5.39h.05l1.17.7,22.56,6.28,34.26,13.35c7.51,4.06,15.07,8,22.51,12.21,9.57,5.39,9.52,5.47,14.73-5.1,4.86-5.9,8.82-12.51,14.35-17.87l3.49-3.42c5.21-3.36,10.38-6.69,16.34-8.77,3.63-1.26,2.62.93,2.71,2.62l0,.13c-1.12.87-1.19,2.17-1.42,3.41-3.38,5.92-6,12.11-7,18.93-3.38,8-4.64,16.46-4.8,25.08,0,1.9-2,4.31-.14,5.53,2.19,1.46,4.28-.84,6.31-1.87,2.15.42,3.95-.65,5.83-1.4,30.57-5.72,60.66-6.44,89.2,8.69l2.31,3.11-4.94,2.55c-5.48,1.24-11.32.89-16.49,3.59a58.34,58.34,0,0,0-19.21,7.12c-3.63.56-6.45,2.69-9.25,4.85a19,19,0,0,0-7.29,4.7c-3.08,1.09-5,3.77-7.65,5.49-2.2,1.44-1.5,2.48-.07,4.12,5.83,6.66,11.49,13.48,17.21,20.24l1.4,2.21,0,.12,10.73,17.81c2,5.95,5.47,11.42,6.21,17.83a45.44,45.44,0,0,1,.83,11.52c0,1.65-.36,3.16-2,3.83-1.42.58-2.57-.25-3.59-1.24-.82-.78-1.73-1.48-2.6-2.21L1125,310.86l-2.86-2.55a99,99,0,0,0-18.44-13.51l-7.29-3.86a62.64,62.64,0,0,0-19.18-7.13c4.53,11.11,5.87,22.22,5.89,33.49a35,35,0,0,1-3.39,16.08c-2.73,5.38-4.73,5.49-7.93.56-1.07-1.65-2-3.42-3.06-5.05-9.34-14-19-27.72-32.41-38.26-2-1.54-3.82-2.8-6.43-2.08-26.29,7.29-51.43,17.14-73.64,33.4-4.93,3.61-9.48,7.75-14.54,11.16-4.39,3-8.29,1.08-9.69-4.08-1.47-5.44.12-10.58,1.73-15.64,2.48-7.78,7-14.57,12.35-22.31a374.07,374.07,0,0,0-68.14,21.27l-8,3.42c-4.28.64-7.8,3.1-11.62,4.86l-2.26,1.09-.11,0-2.27,1.16-.1,0A92.94,92.94,0,0,0,837,331.27l-2.39,1.21c-7,3.56-14,7.16-20.45,11.77-2.37.49-4.07,2.07-5.79,3.61L797.52,355a70.64,70.64,0,0,0-14.21,10.63l-4,3.46a27.19,27.19,0,0,0-8,5.86c-2.34,1.39-2.43-1.17-3.51-2v-.07c-5.61-26.08-.46-51.21,6.78-76.15l6.39-19,.07-.42,8.22-17.4c2.9-5,6.35-9.72,8.41-15.2a7.45,7.45,0,0,0,2.58-3.77L812,225.46l6-6,15.43-11.66c.92-.31,2.1-.15,2.46-1.41l16.5-7.32a250.67,250.67,0,0,1,28.55-7.46c-1.57-1.85-2.91-2.89-4.71-3.27-6.1-4.58-13.3-6.69-20.39-9.06-7-1.81-14-3.64-21.15-4.45L821.37,173c.77-4.95,5.66-5.1,8.71-7.34a39.68,39.68,0,0,1,6.1-3.1l12.75-3.72a1.48,1.48,0,0,0,1.05-.21Zm288.44,160.35c1.37-2.67.37-4.62-.28-6.66-7.11-22.47-19.62-41.57-36.18-58.16-1.31-1.31-3.64-3.07-.76-4.64,5.44-3,9.29-7.82,14.39-11.23,12.79-8.53,27-13.47,42.11-16.92-.67-.77-1-1.36-1.41-1.58a27,27,0,0,0-3.83-1.57,125.13,125.13,0,0,0-47.84-5.68c-11.32.87-23,1.7-33.23,7.25-3.38,1.83-3.88,1-4.71-1.71-2.54-8.27-2.39-16.64-.58-25,1.48-6.78,3.34-13.48,5.27-21.15-10.63,6.76-17.15,15.87-23.41,25.22-3.63,5.42-6.34,11.64-13.5,14.9,2.94-4.78,3.88-8.49-2-11.51-18.08-9.36-36.23-18.5-55.47-25.3a251.42,251.42,0,0,0-101.13-14c-12.63.83-25.29,2.35-37.07,7.62.59,1.63,1.73,1.08,2.62,1.23,8.53,1.4,17,3,25.24,5.81,13.39,4.62,23.58,16.76,39,16.52.08,0,.16.3.31.61a220.11,220.11,0,0,0-47.1,10.91c-21.31,7.28-39.39,18.89-52.17,37.92a209.72,209.72,0,0,0-22.46,44.9c-8.49,23.15-14.93,46.81-14.6,71.79,0,1.46-.8,3.29.91,4.27s2.46-.64,3.47-1.5c28.59-24.2,60.69-42.54,95.16-56.87A308.13,308.13,0,0,1,942,284.54c6.09-1,13.26.41,18.1-5.59,3.13-3.9,7.67-6.2,12-8.63,3.48-2,7.14-4,12.8-2.8a151.64,151.64,0,0,0-30,26.09c-7.4,8.33-13.7,17.35-17.35,28-.65,1.89-1.53,4.21.32,5.46,2.17,1.47,3.49-1,4.84-2.28,16.73-15.86,36.37-26.9,57.71-35.27,7.35-2.88,15.05-4.68,23.06-7.41-2.88-1.82-3.37-2.31-5.45-5.33,29.6,6,43.07,29.06,57.56,52,2.6-21.39-2.06-40.48-11.65-60,3.75,1.57,4.44,3.66,5.92,4.83s2.92,2.66,5.12,2.78c17.46,1,31.32,9.72,44.23,20.53A189,189,0,0,1,1140.85,318.88Z"/><path class="cls-4" d="M905.83,154.44c-.67.53-.83-.08-1.08-.48Z"/><path class="cls-5" d="M892.9,154c-.27.46-.49,1-1.2.54Z"/><path class="cls-6" d="M877.94,312.35a374.07,374.07,0,0,1,68.14-21.27c-5.35,7.74-9.87,14.53-12.35,22.31-1.61,5.06-3.2,10.2-1.73,15.64,1.4,5.16,5.3,7,9.69,4.08,5.06-3.41,9.61-7.55,14.54-11.16,22.21-16.26,47.35-26.11,73.64-33.4,2.61-.72,4.46.54,6.43,2.08,13.44,10.54,23.07,24.27,32.41,38.26,1.09,1.63,2,3.4,3.06,5.05,3.2,4.93,5.2,4.82,7.93-.56a35,35,0,0,0,3.39-16.08c0-11.27-1.36-22.38-5.89-33.49a62.64,62.64,0,0,1,19.18,7.13c-.43,4.73-.71,9.47-1.31,14.17-3.92,30.53-7.51,61.12-12,91.58-4,27.57-6.38,55.31-9.1,83-3.29,33.43-5.73,66.94-8.32,100.43-.23,3-1.06,4.51-3.79,5.58-4.13,1.62-7.22,4.42-8.73,10,2.35-1.4,3.8-2.24,5.23-3.1,18.46-11,40.35-6.22,48.85,10.72s2.8,40.22-12.51,51.59q-15.56,11.56-32.77,3.14a42.71,42.71,0,0,1-12.22-9.32c-.22,4,.56,6.76,2.57,8.93,2.18,2.33,2,4.61,1.47,7.5-5.06,29.64-6.39,59.64-8.52,89.57-1.19,16.56-2.71,33.09-4.31,49.61s-3.55,33-5.24,49.49c-1.88,18.49-3,37-3.74,55.61-.9,21.73-2.28,43.44-3.44,65.15-13.12.14-26.25.53-39.31-1.19a48.35,48.35,0,0,0-21.31,0L909,972.26c.22-11.88-1.32-23.73-.48-35.61a57.14,57.14,0,0,0,0-23.62q-.06-21.37-.11-42.75c0-10.64,0-10.63,10.84-10.95.28,0,.54-.3,1.63-1a95.89,95.89,0,0,0-32.1-3.41c-4.64.31-5-1.23-4.36-4.93,1.36-7.73,6.25-13.52,10.67-19.52a43.2,43.2,0,0,0,8.35-19.29,216.78,216.78,0,0,0,2-30.11c.3-24.92-2.4-49.7-4.16-74.53-.27-3.9-2.68-3.83-5.18-4.05-10.44-.92-20.89-1.5-31.39-1.47-8.46,0-16.93-.75-25.39-1.18a88.8,88.8,0,0,0-29.59-.12c-7.34.83-14.62-.11-21.86-1.06-12.43-1.62-21.72-7.72-26.91-19.46-6.13-13.89-8.59-28.55-9.46-43.57a91,91,0,0,0,.07-29.55c1-21.56,4.12-42.75,12-63,4-10.34,11-17,22.54-19.54,17.29-3.84,34.82-1.09,52.09-3.32,6.93-.89,13.81,2.52,20.5,1.09,7-1.51,13.71-.39,20.54.14,1.7.13,3.49,1.39,5,1.09,9.71-1.9,19.18.44,28.73,1.23,1.28,2.65,2.39,5.39,3.86,7.93,11.78,20.3,29,32.4,52.64,35l.29.32.31-.31,1.44,0a16.8,16.8,0,0,0,9.48-.07l1.47,0,.3.31.3-.31,2.74-.18,5.84-1.23,6.09-2.3,1.83-.91c1.54-.18,1.47-1,.83-2.07,1.52,2.73,2.66.37,3.92-.3l.32.13.21-.27,1.52-1c2.45-.42,4.21-2.06,6-3.56,23.45-19.67,34.23-45.11,33.46-75.41-.93-36.48-35.42-69.2-72.5-62.57-5.15.92-5.54-1.47-6.54-5-5.94-21.33-16.35-39.51-36.2-51.07-16-9.29-33-10.46-50.71-7.47A311.51,311.51,0,0,0,877.94,312.35Zm184.21,303.52c4-1.73,7.89-3.54,11.9-5.16,1.54-.62,3.56-2.28,4.84-.44s-.51,3.76-1.87,5c-3.19,2.89-6.63,5.51-10,8.24l1.39,1.61a41.22,41.22,0,0,1,4.66-.59c4.58-.09,9.47-.13,11.32,5.16,1.61,4.62-1.66,8.64-7.68,10.89-3.82,1.43-7.85,1.12-13.48,1.47,6.78,4.58,12.26,3.94,17.51,1.4s7.8-7,7.29-13.06c-.54-6.31-4.94-8.87-10.26-10.53.53-1.72,2-2.48,3.16-3.51,2.67-2.32,4.79-4.78,2.45-8.61s-5.36-3.11-8.71-1.83c-5.21,2-10,4.58-13.7,8.86-.69.31-1.56.93-1.11,1.55C1060.63,617.33,1061.48,616.53,1062.15,615.87Z"/><path class="cls-7" d="M1028.51,974.64c1.16-21.71,2.54-43.42,3.44-65.15.77-18.57,1.86-37.12,3.74-55.61,1.69-16.5,3.63-33,5.24-49.49s3.12-33,4.31-49.61c2.13-29.93,3.46-59.93,8.52-89.57.5-2.89.71-5.17-1.47-7.5-2-2.17-2.79-5-2.57-8.93a42.71,42.71,0,0,0,12.22,9.32q17.22,8.4,32.77-3.14c15.31-11.37,21-34.6,12.51-51.59s-30.39-21.75-48.85-10.72c-1.43.86-2.88,1.7-5.23,3.1,1.51-5.63,4.6-8.43,8.73-10,2.73-1.07,3.56-2.57,3.79-5.58,2.59-33.49,5-67,8.32-100.43,2.72-27.69,5.06-55.43,9.1-83,4.48-30.46,8.07-61.05,12-91.58.6-4.7.88-9.44,1.31-14.17l7.29,3.86c-1.87,13.69-4.08,27.34-4.84,41.16-2.39,3.14-.95,6.83-1.44,10.25a144.81,144.81,0,0,0-3.53,25.55c-2.1,2.75-.64,6-1.22,8.93-1.67,8.81-3.39,17.61-3.33,26.64-2.59,3.12-.72,6.86-1.44,10.24a102.2,102.2,0,0,0-2.35,20.78c-2,4-1,8.34-1.22,12.53-.3.48-.82.95-.86,1.45q-2,25.14-3.87,50.29c0,.6,0,1.2,0,1.8a204.34,204.34,0,0,0-2.34,27.94c0,.6,0,1.2,0,1.8-1.49,1.2-.86,2.89-1,4.39q-1,12.29-1.88,24.57c-1.31,4.35-.09,8.94-1.45,13.34-1.16,3.77-.77,6.46,4.54,4.79,2.14-.68,4.68-.09,7-.07a6.45,6.45,0,0,0,4.83,1l11.75,6.08a49.49,49.49,0,0,1,10.63,12.4L1115.5,612c-.26,7.93.45,15.9-1.19,23.75l-6.08,14.1-7.24,8.48c-4.14,3.71-9.21,5.81-14.15,8.12-8,2.06-15.9,2-23.49-1.43-3.34-1.48-3.63,1.31-3.67,2.7-.31,9.23-3.2,18.22-2.52,27.53l-.24,1.9a139.51,139.51,0,0,0-2.13,27.83,3.34,3.34,0,0,0-.25,3.1,3,3,0,0,0-1,2.63q-.68,15.63-1.37,31.26l0,3c-1.68,12.79-2.83,25.63-3.32,38.53-.08.64-.16,1.28-.25,1.91-1.9,2.75-.63,5.88-1.09,8.8a276.35,276.35,0,0,0-4.62,42.84l-.24,1.9a166,166,0,0,0-2.13,30.21,5.56,5.56,0,0,0-.25,4.29c-.32.68-.94,1.37-.92,2,.5,13.38-2.11,26.67-1.21,40.07-.07.78-.15,1.56-.22,2.34-1.62,8.68-.93,17.46-1,26.2a10.93,10.93,0,0,0-.18,6.62c-1.58,1-.86,2.67-1.16,4C1033.22,976.17,1030.87,975.16,1028.51,974.64Z"/><path class="cls-8" d="M908.53,936.65c-.84,11.88.7,23.73.48,35.61l-1.88.32h-4.75l-1.72-.25a.82.82,0,0,0-.07-.67l-.12-.38-.4,0c.34-.41,1-.82,1-1.23.13-11.14.2-22.28.28-33.42a68.57,68.57,0,0,0,0-15.29c1-19.48,1.16-39,1-58.48,0-.95.2-2-1.2-2.21a7.39,7.39,0,0,0-7.11,0c-15.35-.32-15.35-.32-14.08-14.34a83.56,83.56,0,0,1,8.92-14.72c3.85-5.18,8.72-10.06,8.78-17.26.29-.24.8-.46.84-.74,2.42-18.16,1.73-36.29-.42-54.4-.7-5.07.22-10.32-1.76-15.24.34-7.77-.82-15.42-2.11-23a5.46,5.46,0,0,0-.27-4.32c.19-8.25.19-8.24-7.82-8.27-7.31,0-14.62-.11-21.93-.17a40.94,40.94,0,0,0-11.75,0H832.06a61.29,61.29,0,0,0-13.74-.07c-7.23-2.21-14.67-.23-22-1.1-11.24-2-22.56-3.72-31.43-11.92l-7.71-9.56q-3-7-6.08-14.11c.26-3.63-1.55-6.81-2.43-10.16-2.42-9.32-2.53-19-4.42-28.34.34-1.86.61-3.72-.29-5.52l1.08-33.21,5-29.65q3-9.59,6-19.17c5.07-11.14,10-22.41,23.71-25.54,7.47-2.67,15.42-3.28,23-5.27L824.78,513c2.5.18,5,.82,7.43-.54,17-1.37,33.91.17,50.82,1.27,9.18.6,18.46.84,27.49,3a17.52,17.52,0,0,1,2.35,7.05c-9.55-.79-19-3.13-28.73-1.23-1.54.3-3.33-1-5-1.09-6.83-.53-13.52-1.65-20.54-.14-6.69,1.43-13.57-2-20.5-1.09-17.27,2.23-34.8-.52-52.09,3.32-11.55,2.56-18.54,9.2-22.54,19.54-7.84,20.24-11,41.43-12,63q0,14.77-.07,29.55c.87,15,3.33,29.68,9.46,43.57,5.19,11.74,14.48,17.84,26.91,19.46,7.24.95,14.52,1.89,21.86,1.06l29.59.12c8.46.43,16.93,1.21,25.39,1.18,10.5,0,21,.55,31.39,1.47,2.5.22,4.91.15,5.18,4.05,1.76,24.83,4.46,49.61,4.16,74.53a216.78,216.78,0,0,1-2,30.11,43.2,43.2,0,0,1-8.35,19.29c-4.42,6-9.31,11.79-10.67,19.52-.66,3.7-.28,5.24,4.36,4.93a95.89,95.89,0,0,1,32.1,3.41c-1.09.65-1.35.94-1.63,1-10.85.32-10.86.31-10.84,10.95q0,21.38.11,42.75Q908.5,924.85,908.53,936.65Z"/><path class="cls-9" d="M848.73,972.2q19.13-.81,38.26,0a3.14,3.14,0,0,1-3,1.41H851.74A3.14,3.14,0,0,1,848.73,972.2Z"/><path class="cls-1" d="M967.89,973.41a48.35,48.35,0,0,1,21.31,0Z"/><path class="cls-9" d="M941.78,974.05H951v.45h-9.21Z"/><path class="cls-10" d="M1060.68,976.48c1.56.38,3.32-.57,4.75.72C1063.56,978.82,1061.86,979.31,1060.68,976.48Z"/><path class="cls-10" d="M1070.19,977.35c.88-.09,2.08-.61,2.29.72.25,1.55-1.14,2.19-2.22,2.9C1070.24,979.77,1070.21,978.56,1070.19,977.35Z"/><path class="cls-10" d="M1069.17,982c-.79,1.44-2.22,2-3.64,2.48C1065.47,981.81,1067.35,982,1069.17,982Z"/><path class="cls-9" d="M902.38,972.58h4.75A3.08,3.08,0,0,1,902.38,972.58Z"/><path class="cls-1" d="M1036.76,970.71c0,1.44.1,2.88.14,4.32l-1.3-.28C1035.9,973.38,1035.18,971.72,1036.76,970.71Z"/><path class="cls-10" d="M1064.27,985.57c-.39.3-.78.6-1.18.89C1063.49,986.17,1063.88,985.87,1064.27,985.57Z"/><path class="cls-1" d="M889.32,971.5l1.11.75-1.14-.18Z"/><path class="cls-1" d="M898.84,972.25l1.74-.6a.82.82,0,0,1,.08.68Z"/><path class="cls-9" d="M846.4,973.77a2.33,2.33,0,0,0-1-.19c-.17-.83.27-1.1,1-1.1Z"/><path class="cls-10" d="M1065.28,985.49l-1,.08,1.33-1.13C1065.49,984.79,1065.39,985.14,1065.28,985.49Z"/><path class="cls-1" d="M850,158.58a1.48,1.48,0,0,1-1.05.21c-.18-.27-.53-.75-.52-.76C849.19,157.43,849.61,158,850,158.58Z"/><path class="cls-11" d="M1140.85,318.88A189,189,0,0,0,1119.19,297c-12.91-10.81-26.77-19.56-44.23-20.53-2.2-.12-3.61-1.6-5.12-2.78s-2.17-3.26-5.92-4.83c9.59,19.48,14.25,38.57,11.65,60-14.49-23-28-46.05-57.56-52,2.08,3,2.57,3.51,5.45,5.33-8,2.73-15.71,4.53-23.06,7.41-21.34,8.37-41,19.41-57.71,35.27-1.35,1.28-2.67,3.75-4.84,2.28-1.85-1.25-1-3.57-.32-5.46,3.65-10.65,10-19.67,17.35-28a151.64,151.64,0,0,1,30-26.09c-5.66-1.16-9.32.83-12.8,2.8-4.28,2.43-8.82,4.73-12,8.63-4.84,6-12,4.63-18.1,5.59a308.13,308.13,0,0,0-70.38,19.87c-34.47,14.33-66.57,32.67-95.16,56.87-1,.86-1.85,2.43-3.47,1.5s-.89-2.81-.91-4.27c-.33-25,6.11-48.64,14.6-71.79a209.72,209.72,0,0,1,22.46-44.9c12.78-19,30.86-30.64,52.17-37.92A220.11,220.11,0,0,1,908.43,193c-.15-.31-.23-.61-.31-.61-15.42.24-25.61-11.9-39-16.52-8.26-2.85-16.71-4.41-25.24-5.81-.89-.15-2,.4-2.62-1.23,11.78-5.27,24.44-6.79,37.07-7.62a251.42,251.42,0,0,1,101.13,14c19.24,6.8,37.39,15.94,55.47,25.3,5.84,3,4.9,6.73,2,11.51,7.16-3.26,9.87-9.48,13.5-14.9,6.26-9.35,12.78-18.46,23.41-25.22-1.93,7.67-3.79,14.37-5.27,21.15-1.81,8.34-2,16.71.58,25,.83,2.69,1.33,3.54,4.71,1.71,10.25-5.55,21.91-6.38,33.23-7.25a125.13,125.13,0,0,1,47.84,5.68,27,27,0,0,1,3.83,1.57c.46.22.74.81,1.41,1.58-15.16,3.45-29.32,8.39-42.11,16.92-5.1,3.41-9,8.26-14.39,11.23-2.88,1.57-.55,3.33.76,4.64,16.56,16.59,29.07,35.69,36.18,58.16C1141.22,314.26,1142.22,316.21,1140.85,318.88Zm-40.55-71.69c-.15-.05-.32-.18-.44-.15-.53.14-.55.4-.06.63a.54.54,0,0,0,.45-.1C1100.32,247.52,1100.29,247.32,1100.3,247.19Z"/><path class="cls-7" d="M877.94,312.35a311.51,311.51,0,0,1,1.82,41.08L872.57,356a157.9,157.9,0,0,0-2.16-26.41l-.47-13.78Z"/><path class="cls-12" d="M1085.68,161.21c-.18,1.26.23,2.76-1.42,3.41C1084.49,163.38,1084.56,162.08,1085.68,161.21Z"/><path class="cls-12" d="M1128.31,275.35c1.06.36,1.21,1.3,1.4,2.21C1129.24,276.82,1128.78,276.08,1128.31,275.35Z"/><path class="cls-4" d="M834.57,332.48l2.39-1.21h0l-2.36,1.2Z"/><path class="cls-4" d="M858.32,320.63l-2.26,1.09Z"/><path class="cls-4" d="M856,321.74l-2.27,1.16Z"/><path class="cls-4" d="M954.85,161.45l-.08.33-1.17-.7Z"/><path class="cls-2" d="M872.57,356l7.19-2.53c17.71-3,34.76-1.82,50.71,7.47,19.85,11.56,30.26,29.74,36.2,51.07,1,3.58,1.39,6,6.54,5,37.08-6.63,71.57,26.09,72.5,62.57.77,30.3-10,55.74-33.46,75.41-1.78,1.5-3.54,3.14-6,3.56l-1.52,1-.21.27-.32-.13-3.92.3c.64,1.06.71,1.89-.83,2.07l-1.83.91-6.09,2.3c-2.28-1.18-4.53-2.23-5.84,1.23l-2.74.18a.7.7,0,0,1-.6,0l-1.47,0a9,9,0,0,0-9.48.07l-1.44,0a.67.67,0,0,1-.6,0c-23.59-2.55-40.86-14.65-52.64-35-1.47-2.54-2.58-5.28-3.86-7.93a17.52,17.52,0,0,0-2.35-7.05c-.8-8.31-1.69-16.61-.86-25,2.4-1.63,3.26-3.53,1-5.94.07-1.19.14-2.38.22-3.57,2.56-.53,2.82-1.74,1-3.55.06-.8.11-1.6.16-2.39,3.13-.85,2.57-2.68,1.26-4.71,6.83-24.41,22.12-41.29,45.62-50.61,3.92-1.55,4.45-3.2,3-6.94-2.71-6.94-5.28-13.77-9.68-20-16-22.75-35.35-38.74-65.35-35.43-1.68-1.85-2.11-.63-2.39,1l-2.39.19c-3.62-.94-6.56-.2-8.32,3.41-1.07.55-1.87,1.73-3.32,1.44-1.82-.11-3.7-.3-3.79,2.37-40.12,28.43-61,85-41.21,134.55-.5,2.06-1.1,4.17,2.12,4.48,1.15.34,1,1.32,1.06,2.19.2,2.91-1.29,4.09-4,4l-.78-1.4c-.12-.91-.23-1.83-1.17-2.32l0,0c-.12-.91-.23-1.83-1.17-2.33l0-.05c-.12-.91-.23-1.83-1.17-2.33l0,0-1.11-2.3L818,500c-.47-2.2-.94-4.39-1.42-6.59,0-1,.1-2.07-.91-2.76l-.15-1.21c-.14-1.23.26-2.62-1-3.54-.19-1.14-.39-2.28-.58-3.42,2.14-1.38,1.43-2.11-.58-2.55l-.69-6.88c2.88-2,1.5-3.55-.57-5q-.17-5.94-.34-11.88.07-3,.14-6c.09-1.22.17-2.43.26-3.65l-.15-.35a1.72,1.72,0,0,0,.94-1.89c.08-2,.16-4,.25-6q2.25-8.93,4.51-17.83c.23-.72.47-1.43.7-2.14q3.4-7.83,6.82-15.68c8.42-12.78,17.33-25.16,29.09-35.19A106.64,106.64,0,0,1,870.34,357Zm128.58,200.1,1.13-.76c15.11-9.34,25.2-22.71,31.55-39.13,11.65-30.1,6.3-59.73-14.72-79.5-10.09-9.5-22.21-15.12-36.17-14.6-23.14.87-41.45,11-54.3,30.53-7,6.39-9.42,14.62-9.56,23.77-.07.79-.13,1.58-.19,2.37-2.63.55-2.88,1.77-1,3.58-.14,2.35.46,4.76-.62,7-.63-.27-1.46-.76-1.7.28-.29,1.24-.28,2.56,1.06,3.37q0,6.54.07,13.08c-1.69,2-2.21,3.76,1,4.77l.17,3.66a.7.7,0,0,1,.14.65c.25.29.66.55.74.89,5.88,25.11,22.29,39.32,46.76,45.23.41,1.55,1,2.51,2.38.69h15.44c1.78,1.86,3,1.64,3.58-1l2.37-.22c2.74,1.31,4.75.65,6-2.19l1.19-.15c1.85-.28,4.41.87,4.77-2.38Z"/><path class="cls-13" d="M1061,614.76c3.71-4.28,8.49-6.88,13.7-8.86,3.35-1.28,6.4-1.95,8.71,1.83s.22,6.29-2.45,8.61c-1.18,1-2.63,1.79-3.16,3.51,5.32,1.66,9.72,4.22,10.26,10.53.51,6-2,10.51-7.29,13.06s-10.73,3.18-17.51-1.4c5.63-.35,9.66,0,13.48-1.47,6-2.25,9.29-6.27,7.68-10.89-1.85-5.29-6.74-5.25-11.32-5.16a41.22,41.22,0,0,0-4.66.59l-1.39-1.61c3.34-2.73,6.78-5.35,10-8.24,1.36-1.23,3.17-3.12,1.87-5s-3.3-.18-4.84.44c-4,1.62-7.94,3.43-11.9,5.16Z"/><path class="cls-4" d="M751.41,635.68q0-14.77.07-29.55A91,91,0,0,1,751.41,635.68Z"/><path class="cls-4" d="M839.23,699.89l-29.59-.12A88.8,88.8,0,0,1,839.23,699.89Z"/><path class="cls-1" d="M908.53,936.65q0-11.8,0-23.62A57.14,57.14,0,0,1,908.53,936.65Z"/><path class="cls-10" d="M971.41,566.76a9,9,0,0,1,9.48-.07A16.8,16.8,0,0,1,971.41,566.76Z"/><path class="cls-10" d="M985.7,566.54c1.31-3.46,3.56-2.41,5.84-1.23Z"/><path class="cls-9" d="M1000.29,560l3.92-.3C1003,560.4,1001.81,562.76,1000.29,560Z"/><path class="cls-13" d="M1062.15,615.87c-.67.66-1.52,1.46-2.26.44-.45-.62.42-1.24,1.11-1.55Z"/><path class="cls-10" d="M982.36,566.72a.7.7,0,0,0,.6,0l-.3.31Z"/><path class="cls-10" d="M969.37,566.71a.67.67,0,0,0,.6,0l-.31.31Z"/><path class="cls-9" d="M997.63,563l1.83-.91Z"/><path class="cls-9" d="M1004.74,559.59l1.52-1Z"/><path class="cls-1" d="M886.92,358.62c30-3.31,49.37,12.68,65.35,35.43,4.4,6.27,7,13.1,9.68,20,1.46,3.74.93,5.39-3,6.94-23.5,9.32-38.79,26.2-45.62,50.61l-1.26,4.71c-.05.79-.1,1.59-.16,2.39l-1,3.55c-.08,1.19-.15,2.38-.22,3.57-1.21,1.83-1.1,3.89-1,5.94-.83,8.37.06,16.67.86,25-9-2.19-18.31-2.43-27.49-3-16.91-1.1-33.84-2.64-50.82-1.27l-3.53-4.27c-.06-.87.09-1.85-1.06-2.19-.71-1.49-1.42-3-2.12-4.48C805.69,452,826.59,395.42,866.71,367c1.35-.65,2.94-.92,3.79-2.37,1.45.29,2.25-.89,3.32-1.44l8.32-3.41,2.39-.19A2.39,2.39,0,0,0,886.92,358.62ZM907,477.54c-1-4.52-3.8-7-8.25-7.9-9.22-.81-16.76,4.38-18.84,13-1.95,8,2.69,15.21,10.56,16.4,5.82,1.36,10-1,13.13-5.78a6.49,6.49,0,0,0,2.36-5c.7-.63,1.33-1.3,1-2.37l.17-3.51c.69-.44.69-.88,0-1.33C907.1,479.87,907,478.7,907,477.54Z"/><path class="cls-10" d="M824.78,513a3,3,0,0,0-.15-.84c2.76.12,4.25-1.06,4-4l3.53,4.27C829.82,513.84,827.28,513.2,824.78,513Z"/><path class="cls-3" d="M1100.3,247.19c0,.13,0,.33,0,.38a.54.54,0,0,1-.45.1c-.49-.23-.47-.49.06-.63C1100,247,1100.15,247.14,1100.3,247.19Z"/><path class="cls-1" d="M996.39,558.44l-1.19.15-6,2.19-2.37.22-3.58,1H967.85l-2.38-.69c-24.47-5.91-40.88-20.12-46.76-45.23-.08-.34-.49-.6-.74-.89l.12-.36-.26-.29-.17-3.66-1-4.77q0-6.54-.07-13.08l.64-3.65c1.08-2.27.48-4.68.62-7a3.9,3.9,0,0,0,1-3.58c.06-.79.12-1.58.19-2.37,2.71-8.11,5.36-16.25,9.56-23.77,12.85-19.49,31.16-29.66,54.3-30.53,14-.52,26.08,5.1,36.17,14.6,21,19.77,26.37,49.4,14.72,79.5-6.35,16.42-16.44,29.79-31.55,39.13l-1.13.76h0A10,10,0,0,0,996.39,558.44ZM984,501.39c8.17.1,14.52-6.73,14.81-15.91.23-7.46-4.21-12.27-11.26-12.2-9.55.1-16.81,6.7-16.79,15.27C970.73,495.86,976.33,501.29,984,501.39Z"/><path class="cls-10" d="M928.64,452.6c-4.2,7.52-6.85,15.66-9.56,23.77C919.22,467.22,921.62,459,928.64,452.6Z"/><path class="cls-10" d="M882.14,359.77l-8.32,3.41C875.58,359.57,878.52,358.83,882.14,359.77Z"/><path class="cls-10" d="M989.24,560.78l6-2.19C994,561.43,992,562.09,989.24,560.78Z"/><path class="cls-10" d="M909.66,491.8c-.09-2.05-.2-4.11,1-5.94C912.92,488.27,912.06,490.17,909.66,491.8Z"/><path class="cls-10" d="M916.7,506.08l1,4.77C914.49,509.84,915,508.08,916.7,506.08Z"/><path class="cls-10" d="M811.92,472.8l.15-4.76c2.07,1.46,3.45,3,.57,5Z"/><path class="cls-10" d="M917.27,489.35l-.64,3.65c-1.34-.81-1.35-2.13-1.06-3.37C915.81,488.59,916.64,489.08,917.27,489.35Z"/><path class="cls-10" d="M912.08,476.35l1.26-4.71C914.65,473.67,915.21,475.5,912.08,476.35Z"/><path class="cls-10" d="M983.29,562l3.58-1C986.29,563.61,985.07,563.83,983.29,562Z"/><path class="cls-10" d="M918.89,478.74a3.9,3.9,0,0,1-1,3.58C916,480.51,916.26,479.29,918.89,478.74Z"/><path class="cls-10" d="M996.39,558.44a10,10,0,0,1,4.77-2.38C1000.8,559.31,998.24,558.16,996.39,558.44Z"/><path class="cls-10" d="M910.89,482.29l1-3.55C913.71,480.55,913.45,481.76,910.89,482.29Z"/><path class="cls-10" d="M825.5,501.54c.7,1.49,1.41,3,2.12,4.48C824.4,505.71,825,503.6,825.5,501.54Z"/><path class="cls-10" d="M870.5,364.62c-.85,1.45-2.44,1.72-3.79,2.37C866.8,364.32,868.68,364.51,870.5,364.62Z"/><path class="cls-10" d="M886.92,358.62a2.39,2.39,0,0,1-2.39,1C884.81,358,885.24,356.77,886.92,358.62Z"/><path class="cls-10" d="M813.91,482.48c-.19-.85-.38-1.7-.58-2.55C815.34,480.37,816.05,481.1,813.91,482.48Z"/><path class="cls-10" d="M965.47,561.28l2.38.69C966.46,563.79,965.88,562.83,965.47,561.28Z"/><path class="cls-1" d="M811.87,450.17c-1.58-1.33-1.42-2.54.26-3.65C812,447.74,812,449,811.87,450.17Z"/><path class="cls-10" d="M814.54,488.85c0-1,0-2,0-3,1.26.92.86,2.31,1,3.54A2.92,2.92,0,0,0,814.54,488.85Z"/><path class="cls-10" d="M820.28,503.66l-1.11-2.3Z"/><path class="cls-10" d="M816.55,493.41a2.48,2.48,0,0,1-.91-2.76C816.65,491.34,816.59,492.38,816.55,493.41Z"/><path class="cls-10" d="M823.85,510.78l-1.17-2.32C823.62,509,823.73,509.87,823.85,510.78Z"/><path class="cls-10" d="M822.66,508.41l-1.17-2.33C822.43,506.58,822.54,507.5,822.66,508.41Z"/><path class="cls-10" d="M821.47,506l-1.17-2.33C821.24,504.2,821.35,505.12,821.47,506Z"/><path class="cls-10" d="M917.83,514.51l.26.29-.12.36A.7.7,0,0,0,917.83,514.51Z"/><path class="cls-10" d="M1001.15,556.06l1.13-.76Z"/><path class="cls-1" d="M812,446.17c.32-.63.63-1.26.94-1.89A1.72,1.72,0,0,1,812,446.17Z"/><path class="cls-2" d="M890.46,499c-7.87-1.19-12.51-8.39-10.56-16.4,2.08-8.58,9.62-13.77,18.84-13-.43.36-1,.64-1.23,1.1-.33.7.33.87.84.84,2.53-.13,2.2,1.21,1.48,2.78-4.34-1.15-6,.78-5.77,5l-2.3-.58c-.24-1.59-.72-2.64-2.67-1.68-4.17,2-6.33,5.25-5.55,9.92,1.24,7.46,6.32,9.77,15.22,7.11C898.08,499.26,892.63,496.36,890.46,499Z"/><path class="cls-2" d="M907.16,482.37c-.06,1.17-.12,2.34-.17,3.51-1.59.25-2.85.64-1,2.37a6.49,6.49,0,0,1-2.36,5l-2.5-1.44c1.11-2.18,2.58-4.24-1.66-4.85-3.15-.46-5.95-2-6.78-5.57l2.65-.28c4.94,3.77,6,3.42,7.35-2.36,1.14-1,.87-2.3.92-3.56h0c1.23.66,1.61,2.55,3.43,2.37l.17,3.5Z"/><path class="cls-10" d="M907,477.54c-1.82.18-2.2-1.71-3.43-2.37l-.49-.27.5.26c-.05,1.26.22,2.59-.92,3.56l-2.82-4.36c.72-1.57,1-2.91-1.48-2.78-.51,0-1.17-.14-.84-.84.21-.46.8-.74,1.23-1.1C903.19,470.5,906,473,907,477.54Z"/><path class="cls-10" d="M901.09,491.78l2.5,1.44c-3.1,4.82-7.31,7.14-13.13,5.78,2.17-2.64,7.62.26,8.3-4.9Z"/><path class="cls-10" d="M906,488.25c-1.81-1.73-.55-2.12,1-2.37C907.28,487,906.65,487.62,906,488.25Z"/><path class="cls-10" d="M907.16,482.37V481C907.85,481.49,907.85,481.93,907.16,482.37Z"/><path class="cls-2" d="M984,501.39c-7.63-.1-13.23-5.53-13.24-12.84,0-8.57,7.24-15.17,16.79-15.27,7-.07,11.49,4.74,11.26,12.2C998.48,494.66,992.13,501.49,984,501.39Zm11.16-12.64c-9.21,3.38-12.07,1.69-14.83-8-4.81,1.7-6,5.37-5.09,9.91a7.87,7.87,0,0,0,8,6.69C988.45,497.25,993.3,495.4,995.12,488.75ZM994,482.64c-1.16-2.31-1.84-5.2-5.42-5.05-2.48.1-4.13,1.36-4.13,3.94,0,3,1.34,5.27,4.7,5.54C992.12,487.31,993,485,994,482.64Z"/><path class="cls-14" d="M901.09,491.78l-2.33,2.32c-8.9,2.66-14,.35-15.22-7.11-.78-4.67,1.38-7.88,5.55-9.92,1.95-1,2.43.09,2.67,1.68a2.67,2.67,0,0,0,0,1.16l.93,1.29,0,.17c.83,3.58,3.63,5.1,6.78,5.56C903.67,487.54,902.2,489.6,901.09,491.78Z"/><path class="cls-4" d="M899.83,474.36l2.82,4.36c-1.33,5.78-2.41,6.13-7.35,2.36-.4-.57-.81-1.13-1.21-1.69l0-.06C893.8,475.14,895.49,473.21,899.83,474.36Z"/><path class="cls-10" d="M894.06,479.33l0,.06-1.27.57-1.07,0a2.67,2.67,0,0,1,0-1.16Z"/><path class="cls-10" d="M894.09,479.39c.4.56.81,1.12,1.21,1.69l-2.65.28,0-.16c0-.41.08-.83.13-1.24Z"/><path class="cls-2" d="M903.57,475.16l-.5-.26.49.27Z"/><path class="cls-14" d="M995.12,488.75c-1.82,6.65-6.67,8.5-11.91,8.61a7.87,7.87,0,0,1-8-6.69c-.93-4.54.28-8.21,5.1-9.91C983.05,490.44,985.91,492.13,995.12,488.75Z"/><path class="cls-4" d="M994,482.64c-1,2.36-1.84,4.67-4.85,4.43-3.36-.27-4.69-2.5-4.7-5.54,0-2.58,1.65-3.84,4.13-3.94C992.12,477.44,992.8,480.33,994,482.64Z"/><path class="cls-2" d="M892.82,480c-.05.41-.09.83-.13,1.24l-.94-1.29Z"/></svg>